<svg width="770" height="145" viewBox="0 0 770 145" fill="none" xmlns="http://www.w3.org/2000/svg">
<g clip-path="url(#clip0_3_24)">
<path d="M111.73 6.5868L89.1524 6.58974L88.234 2.46688C87.9186 1.03032 86.6419 0.0075886 85.1699 0.00778048L59.7382 0.0110956C58.2662 0.0112875 56.9947 1.03435 56.6748 2.471L55.762 6.59409L33.1801 6.59704C24.9197 6.59811 18.2042 13.3178 18.2053 21.5783L18.2194 129.95C18.2205 138.211 24.9377 144.929 33.1982 144.928L111.748 144.917C120.008 144.916 126.729 138.197 126.728 129.936L126.714 21.5641C126.712 13.3037 119.99 6.58572 111.73 6.5868ZM116.937 129.937C116.938 132.798 114.61 135.127 111.746 135.127L33.1966 135.137C30.3378 135.138 28.0095 132.81 28.0091 129.949L27.995 21.577C27.9946 18.7158 30.3223 16.3877 33.1811 16.3873L53.5879 16.3847L53.0674 18.727C52.8569 19.6566 53.0867 20.6318 53.6797 21.3729C54.2769 22.1162 55.1808 22.5486 56.1316 22.5485L88.7861 22.5442C89.7375 22.5441 90.6409 22.1115 91.2334 21.368C91.8311 20.6246 92.0603 19.6518 91.8499 18.7219L91.3288 16.3798L111.731 16.3771C114.595 16.3767 116.923 18.7045 116.923 21.5654L116.937 129.937Z" fill="url(#paint0_linear_3_24)"/>
<path d="M52.5944 58.0138L65.9074 58.0121L62.743 55.8519C58.2774 52.8053 57.1296 46.7124 60.1787 42.2474C63.2234 37.7869 69.3181 36.6318 73.7832 39.6833L74.3047 40.0394L74.3042 36.3036C74.3039 33.8823 72.3388 31.918 69.9196 31.9183L52.591 31.9206C50.1725 31.9209 48.2079 33.886 48.2082 36.307L48.2105 53.6285C48.2108 56.0502 50.1759 58.0141 52.5944 58.0138Z" fill="url(#paint1_linear_3_24)"/>
<path d="M93.3535 33.9636L78.0104 48.4929L71.021 43.7257C68.798 42.1985 65.7479 42.7773 64.2186 45.0077C62.6939 47.2399 63.2681 50.2851 65.5055 51.8098L75.7508 58.8044C76.5875 59.378 77.5483 59.6574 78.5093 59.6573C79.7283 59.6571 80.9373 59.2032 81.8746 58.316L100.085 41.0712C102.05 39.2139 102.13 36.1138 100.275 34.1517C98.4108 32.1895 95.3174 32.1062 93.3535 33.9636Z" fill="url(#paint2_linear_3_24)"/>
<path d="M52.5988 91.6413L65.9168 91.6395L62.7474 89.4769C58.2818 86.4297 57.134 80.3374 60.183 75.8724C63.2278 71.4092 69.3225 70.254 73.7876 73.308L74.309 73.6644L74.3086 69.9286C74.3082 67.5076 72.3432 65.543 69.924 65.5433L52.5954 65.5456C50.1769 65.5459 48.2123 67.511 48.2126 69.932L48.2149 87.256C48.2152 89.677 50.1803 91.6416 52.5988 91.6413Z" fill="url(#paint3_linear_3_24)"/>
<path d="M93.3579 67.5907L78.0148 82.1176L71.0254 77.3504C68.8024 75.8208 65.7522 76.3974 64.223 78.6324C62.6983 80.8652 63.2725 83.9098 65.5099 85.4348L75.7552 92.4294C76.5919 93.003 77.5527 93.2824 78.5137 93.2823C79.7327 93.2821 80.9417 92.8276 81.8789 91.941L100.09 74.6984C102.054 72.841 102.134 69.7434 100.28 67.7788C98.4151 65.8164 95.3218 65.7355 93.3579 67.5907Z" fill="url(#paint4_linear_3_24)"/>
<path d="M69.9284 99.1702L52.5998 99.1725C50.1812 99.1728 48.2167 101.138 48.217 103.559L48.2192 120.88C48.2195 123.301 50.1846 125.266 52.6032 125.266L69.9318 125.263C72.3509 125.263 74.3155 123.298 74.3152 120.877L74.3129 103.555C74.3126 101.134 72.3475 99.1699 69.9284 99.1702Z" fill="url(#paint5_linear_3_24)"/>
</g>
<path d="M175.768 52.272H167.512V48.528H164.44V70.128H167.8V78H147.64V70.128H151V48.528H147.928V52.272H139.672V40.656H175.768V52.272ZM195.461 78.672C189.605 78.672 185.077 77.136 181.877 74.064C178.709 70.992 177.125 66.08 177.125 59.328C177.125 52.576 178.709 47.664 181.877 44.592C185.077 41.52 189.605 39.984 195.461 39.984C201.317 39.984 205.829 41.52 208.997 44.592C212.197 47.664 213.797 52.576 213.797 59.328C213.797 66.08 212.197 70.992 208.997 74.064C205.829 77.136 201.317 78.672 195.461 78.672ZM195.461 70.128C196.549 70.128 197.365 69.84 197.909 69.264C198.453 68.688 198.725 67.792 198.725 66.576V52.08C198.725 50.864 198.453 49.968 197.909 49.392C197.365 48.816 196.549 48.528 195.461 48.528C194.373 48.528 193.557 48.816 193.013 49.392C192.469 49.968 192.197 50.864 192.197 52.08V66.576C192.197 67.824 192.469 68.736 193.013 69.312C193.557 69.856 194.373 70.128 195.461 70.128ZM215.429 70.128H217.829V48.576H215.429V40.656H234.917C240.261 40.656 244.501 42.128 247.637 45.072C250.805 47.984 252.389 52.736 252.389 59.328C252.389 65.92 250.805 70.688 247.637 73.632C244.501 76.544 240.261 78 234.917 78H215.429V70.128ZM234.053 70.128C235.141 70.128 235.957 69.84 236.501 69.264C237.045 68.688 237.317 67.792 237.317 66.576V52.08C237.317 49.712 236.229 48.528 234.053 48.528H231.269V70.128H234.053ZM272.055 78.672C266.199 78.672 261.671 77.136 258.471 74.064C255.303 70.992 253.719 66.08 253.719 59.328C253.719 52.576 255.303 47.664 258.471 44.592C261.671 41.52 266.199 39.984 272.055 39.984C277.911 39.984 282.423 41.52 285.591 44.592C288.791 47.664 290.391 52.576 290.391 59.328C290.391 66.08 288.791 70.992 285.591 74.064C282.423 77.136 277.911 78.672 272.055 78.672ZM272.055 70.128C273.143 70.128 273.959 69.84 274.503 69.264C275.047 68.688 275.319 67.792 275.319 66.576V52.08C275.319 50.864 275.047 49.968 274.503 49.392C273.959 48.816 273.143 48.528 272.055 48.528C270.967 48.528 270.151 48.816 269.607 49.392C269.063 49.968 268.791 50.864 268.791 52.08V66.576C268.791 67.824 269.063 68.736 269.607 69.312C270.151 69.856 270.967 70.128 272.055 70.128ZM306.903 78.672C303.831 78.672 300.919 78.416 298.167 77.904C295.447 77.36 293.351 76.752 291.879 76.08V66.576H302.439C302.439 67.568 302.663 68.288 303.111 68.736C303.559 69.184 304.375 69.408 305.559 69.408C306.551 69.408 307.255 69.264 307.671 68.976C308.119 68.656 308.343 68.192 308.343 67.584C308.343 67.072 308.135 66.64 307.719 66.288C307.303 65.904 306.583 65.52 305.559 65.136L301.431 63.696C297.879 62.352 295.319 60.768 293.751 58.944C292.215 57.12 291.447 54.656 291.447 51.552C291.447 47.776 292.679 44.912 295.143 42.96C297.639 40.976 301.783 39.984 307.575 39.984C310.359 39.984 312.967 40.272 315.399 40.848C317.863 41.392 319.847 42.128 321.351 43.056V51.648H311.751C311.751 50.048 310.759 49.248 308.775 49.248C307.815 49.248 307.127 49.376 306.711 49.632C306.327 49.856 306.135 50.272 306.135 50.88C306.135 51.424 306.359 51.856 306.807 52.176C307.287 52.496 308.055 52.832 309.111 53.184L313.287 54.624C316.679 55.776 319.143 57.28 320.679 59.136C322.247 60.96 323.031 63.36 323.031 66.336C323.031 70.4 321.655 73.472 318.903 75.552C316.183 77.632 312.183 78.672 306.903 78.672ZM362.766 48.528H360.366V70.128H362.766V78H344.622V70.128H346.926V62.208H340.206V70.128H342.51V78H324.366V70.128H326.766V48.528H324.366V40.656H342.51V48.528H340.206V55.824H346.926V48.528H344.622V40.656H362.766V48.528ZM400.631 70.128H403.031V78H389.927L382.727 63.12L380.519 64.944V70.128H382.823V78H364.679V70.128H367.079V48.528H364.679V40.656H382.823V48.528H380.519V54.864L387.959 48.528H384.935V40.656H402.791V48.528H400.391L392.375 55.152L400.631 70.128ZM439.989 70.128H441.909V78H423.093V70.128H425.973L425.205 66.288H418.677L417.909 70.128H420.789V78H404.373V70.128H406.293L414.405 40.656H431.877L439.989 70.128ZM419.733 61.2H424.149L422.181 51.648H421.701L419.733 61.2Z" fill="#F5F5F5"/>
<path d="M444.389 78V70.128H451.877V78H444.389Z" fill="#6200E3"/>
<path d="M143.17 102C143.17 102.64 143.38 103.14 143.8 103.5C144.22 103.86 144.76 104.16 145.42 104.4C146.08 104.62 146.78 104.84 147.52 105.06C148.26 105.28 148.96 105.55 149.62 105.87C150.28 106.19 150.82 106.63 151.24 107.19C151.66 107.75 151.87 108.49 151.87 109.41C151.87 110.47 151.58 111.36 151 112.08C150.42 112.8 149.63 113.35 148.63 113.73C147.65 114.09 146.55 114.27 145.33 114.27C144.59 114.27 143.83 114.21 143.05 114.09C142.27 113.97 141.47 113.8 140.65 113.58L140.86 109.56H142.39L142.69 112.5L142.42 112.17C142.88 112.29 143.38 112.39 143.92 112.47C144.46 112.55 144.96 112.59 145.42 112.59C146.14 112.59 146.8 112.49 147.4 112.29C148.02 112.07 148.52 111.76 148.9 111.36C149.28 110.94 149.47 110.42 149.47 109.8C149.47 109.14 149.26 108.62 148.84 108.24C148.44 107.86 147.91 107.55 147.25 107.31C146.59 107.07 145.89 106.85 145.15 106.65C144.43 106.43 143.74 106.16 143.08 105.84C142.42 105.5 141.88 105.06 141.46 104.52C141.04 103.98 140.83 103.24 140.83 102.3C140.83 101.28 141.09 100.45 141.61 99.81C142.15 99.15 142.85 98.67 143.71 98.37C144.59 98.05 145.53 97.89 146.53 97.89C147.21 97.89 147.96 97.96 148.78 98.1C149.6 98.24 150.44 98.45 151.3 98.73L151.15 102.12H149.62L149.17 99.63L149.53 100.05C148.49 99.75 147.51 99.6 146.59 99.6C145.61 99.6 144.79 99.81 144.13 100.23C143.49 100.63 143.17 101.22 143.17 102ZM158.816 112.47L158.546 112.14L161.156 112.71V114H154.046V112.71L156.656 112.14L156.416 112.47V92.61L156.656 92.88L154.046 92.34V91.05L158.816 90.84V112.47ZM170.701 97.89C172.901 97.89 174.621 98.58 175.861 99.96C177.121 101.34 177.751 103.29 177.751 105.81C177.751 107.51 177.441 109 176.821 110.28C176.221 111.54 175.361 112.52 174.241 113.22C173.121 113.92 171.771 114.27 170.191 114.27C168.031 114.27 166.341 113.6 165.121 112.26C163.901 110.9 163.291 108.95 163.291 106.41C163.291 104.65 163.581 103.14 164.161 101.88C164.761 100.6 165.611 99.62 166.711 98.94C167.831 98.24 169.161 97.89 170.701 97.89ZM170.581 99.66C169.041 99.66 167.861 100.24 167.041 101.4C166.221 102.56 165.811 104.19 165.811 106.29C165.811 108.35 166.201 109.9 166.981 110.94C167.761 111.98 168.881 112.5 170.341 112.5C171.401 112.5 172.291 112.24 173.011 111.72C173.751 111.18 174.301 110.42 174.661 109.44C175.041 108.46 175.231 107.29 175.231 105.93C175.231 103.89 174.821 102.34 174.001 101.28C173.201 100.2 172.061 99.66 170.581 99.66ZM179.947 120.9V119.61L182.677 118.98L182.287 119.43V99.72L182.647 100.11L179.947 99.54V98.25L184.147 98.04L184.447 100.65L184.177 100.47C185.097 99.61 186.017 98.97 186.937 98.55C187.857 98.11 188.767 97.89 189.667 97.89C190.787 97.89 191.787 98.2 192.667 98.82C193.567 99.44 194.277 100.34 194.797 101.52C195.317 102.68 195.577 104.11 195.577 105.81C195.577 107.65 195.257 109.2 194.617 110.46C193.997 111.72 193.117 112.68 191.977 113.34C190.837 113.98 189.497 114.3 187.957 114.3C187.397 114.3 186.817 114.25 186.217 114.15C185.617 114.05 184.987 113.92 184.327 113.76L184.687 113.43V119.43L184.357 119.01L187.447 119.61V120.9H179.947ZM187.687 112.5C189.447 112.5 190.787 111.93 191.707 110.79C192.627 109.65 193.087 108.07 193.087 106.05C193.087 104.73 192.897 103.6 192.517 102.66C192.157 101.72 191.657 101 191.017 100.5C190.377 99.98 189.647 99.72 188.827 99.72C188.127 99.72 187.397 99.91 186.637 100.29C185.897 100.65 185.147 101.21 184.387 101.97L184.687 101.22V112.47L184.357 111.93C185.577 112.31 186.687 112.5 187.687 112.5ZM197.818 120.9V119.61L200.548 118.98L200.158 119.43V99.72L200.518 100.11L197.818 99.54V98.25L202.018 98.04L202.318 100.65L202.048 100.47C202.968 99.61 203.888 98.97 204.808 98.55C205.728 98.11 206.638 97.89 207.538 97.89C208.658 97.89 209.658 98.2 210.538 98.82C211.438 99.44 212.148 100.34 212.668 101.52C213.188 102.68 213.448 104.11 213.448 105.81C213.448 107.65 213.128 109.2 212.488 110.46C211.868 111.72 210.988 112.68 209.848 113.34C208.708 113.98 207.368 114.3 205.828 114.3C205.268 114.3 204.688 114.25 204.088 114.15C203.488 114.05 202.858 113.92 202.198 113.76L202.558 113.43V119.43L202.228 119.01L205.318 119.61V120.9H197.818ZM205.558 112.5C207.318 112.5 208.658 111.93 209.578 110.79C210.498 109.65 210.958 108.07 210.958 106.05C210.958 104.73 210.768 103.6 210.388 102.66C210.028 101.72 209.528 101 208.888 100.5C208.248 99.98 207.518 99.72 206.698 99.72C205.998 99.72 205.268 99.91 204.508 100.29C203.768 100.65 203.018 101.21 202.258 101.97L202.558 101.22V112.47L202.228 111.93C203.448 112.31 204.558 112.5 205.558 112.5ZM214.714 121.02L214.924 119.25C215.164 119.29 215.384 119.32 215.584 119.34C215.804 119.36 216.004 119.37 216.184 119.37C217.164 119.37 217.954 119.14 218.554 118.68C219.174 118.24 219.694 117.57 220.114 116.67C220.534 115.77 220.964 114.65 221.404 113.31L221.314 114.21L215.704 99.6L216.034 99.87L214.084 99.54V98.25L220.654 98.04V99.36L217.954 99.81L218.134 99.54L222.604 112.29L222.064 112.17L226.354 99.6L226.534 99.87L223.894 99.54V98.25L230.254 98.04V99.36L228.154 99.84L228.574 99.57L223.294 114.06C222.934 115.06 222.554 115.99 222.154 116.85C221.774 117.71 221.334 118.46 220.834 119.1C220.334 119.76 219.724 120.27 219.004 120.63C218.284 120.99 217.414 121.17 216.394 121.17C215.934 121.17 215.374 121.12 214.714 121.02ZM254.238 98.25L260.268 98.04V99.36L258.168 99.87L258.588 99.51L254.478 114.06H251.838L247.938 99.9H248.418L244.278 114.06H241.638L237.708 99.57L238.068 99.93L235.998 99.54V98.25L242.478 98.04V99.36L239.748 99.84L240.018 99.54L243.348 112.59H242.958L246.978 98.22L249.588 98.04L253.458 112.68H253.068L256.578 99.6L256.848 99.93L254.238 99.54V98.25ZM261.048 114V112.71L263.688 112.14L263.388 112.59V99.66L263.718 100.11L261.048 99.54V98.25L265.248 98.04L265.578 100.98L265.248 100.86C266.148 99.92 267.028 99.19 267.888 98.67C268.748 98.15 269.688 97.89 270.708 97.89C271.348 97.89 272.018 97.99 272.718 98.19L272.538 102.57H271.038L270.678 99.42L270.948 99.96C270.808 99.92 270.658 99.89 270.498 99.87C270.338 99.85 270.178 99.84 270.018 99.84C269.218 99.84 268.438 100.08 267.678 100.56C266.938 101.04 266.228 101.66 265.548 102.42L265.788 101.7V112.59L265.428 112.14L268.698 112.71V114H261.048ZM278.679 112.47L278.409 112.14L281.019 112.71V114H273.939V112.71L276.549 112.14L276.279 112.47V99.81L276.519 100.08L273.939 99.54V98.25L278.679 98.07V112.47ZM277.299 94.83C276.839 94.83 276.459 94.68 276.159 94.38C275.859 94.08 275.709 93.67 275.709 93.15C275.709 92.61 275.859 92.2 276.159 91.92C276.479 91.62 276.869 91.47 277.329 91.47C277.809 91.47 278.199 91.61 278.499 91.89C278.799 92.17 278.949 92.59 278.949 93.15C278.949 93.69 278.789 94.11 278.469 94.41C278.149 94.69 277.759 94.83 277.299 94.83ZM288.184 114.27C287.144 114.27 286.324 113.95 285.724 113.31C285.124 112.65 284.824 111.66 284.824 110.34V99.45L285.214 99.84H282.124V98.52L285.244 98.07L284.824 98.55V94.59L287.224 94.2V98.55L286.894 98.16H291.604L291.514 99.84H286.894L287.224 99.45V110.01C287.224 110.85 287.384 111.46 287.704 111.84C288.044 112.22 288.514 112.41 289.114 112.41C289.474 112.41 289.864 112.35 290.284 112.23C290.704 112.11 291.154 111.94 291.634 111.72L292.144 113.1C290.724 113.88 289.404 114.27 288.184 114.27ZM298.484 112.47L298.214 112.14L300.824 112.71V114H293.744V112.71L296.354 112.14L296.084 112.47V99.81L296.324 100.08L293.744 99.54V98.25L298.484 98.07V112.47ZM297.104 94.83C296.644 94.83 296.264 94.68 295.964 94.38C295.664 94.08 295.514 93.67 295.514 93.15C295.514 92.61 295.664 92.2 295.964 91.92C296.284 91.62 296.674 91.47 297.134 91.47C297.614 91.47 298.004 91.61 298.304 91.89C298.604 92.17 298.754 92.59 298.754 93.15C298.754 93.69 298.594 94.11 298.274 94.41C297.954 94.69 297.564 94.83 297.104 94.83ZM302.679 114V112.71L305.379 112.11L305.019 112.56V99.66L305.379 100.11L302.679 99.54V98.25L306.879 98.04L307.209 100.98L306.879 100.86C307.879 99.84 308.919 99.09 309.999 98.61C311.099 98.13 312.139 97.89 313.119 97.89C314.439 97.89 315.529 98.3 316.389 99.12C317.269 99.92 317.699 101.17 317.679 102.87V112.56L317.379 112.14L320.019 112.71V114H313.029V112.71L315.639 112.14L315.279 112.59V103.38C315.279 102.14 314.999 101.23 314.439 100.65C313.879 100.07 313.129 99.78 312.189 99.78C311.449 99.78 310.639 99.98 309.759 100.38C308.899 100.78 308.049 101.4 307.209 102.24L307.419 101.76V112.59L307.119 112.17L309.669 112.71V114H302.679ZM328.443 121.17C326.103 121.17 324.353 120.83 323.193 120.15C322.033 119.47 321.453 118.49 321.453 117.21C321.453 116.31 321.753 115.51 322.353 114.81C322.953 114.11 323.833 113.5 324.993 112.98L325.023 113.46C324.383 113.42 323.893 113.29 323.553 113.07C323.213 112.83 323.043 112.5 323.043 112.08C323.043 111.92 323.063 111.76 323.103 111.6C323.143 111.44 323.213 111.22 323.313 110.94C323.433 110.64 323.603 110.25 323.823 109.77C324.063 109.27 324.363 108.62 324.723 107.82L324.783 108.24C323.923 107.78 323.263 107.16 322.803 106.38C322.343 105.58 322.113 104.64 322.113 103.56C322.113 101.82 322.683 100.44 323.823 99.42C324.983 98.4 326.573 97.89 328.593 97.89C329.953 97.89 331.123 98.13 332.103 98.61L331.443 98.46L336.153 98.25L336.183 99.69L333.393 100.23L333.603 99.87C334.023 100.27 334.343 100.76 334.563 101.34C334.783 101.92 334.893 102.58 334.893 103.32C334.893 105.08 334.303 106.47 333.123 107.49C331.943 108.51 330.373 109.02 328.413 109.02C327.293 109.02 326.263 108.83 325.323 108.45L325.863 108.18L325.083 112.11L324.573 111.81H330.453C332.373 111.81 333.833 112.19 334.833 112.95C335.833 113.69 336.333 114.76 336.333 116.16C336.333 117.78 335.663 119.02 334.323 119.88C333.003 120.74 331.043 121.17 328.443 121.17ZM328.653 119.34C330.473 119.34 331.823 119.09 332.703 118.59C333.583 118.09 334.023 117.34 334.023 116.34C334.023 115.46 333.693 114.79 333.033 114.33C332.373 113.89 331.383 113.67 330.063 113.67H325.293L325.983 113.52C324.383 114.52 323.583 115.6 323.583 116.76C323.583 117.62 323.993 118.26 324.813 118.68C325.653 119.12 326.933 119.34 328.653 119.34ZM328.413 107.34C329.693 107.34 330.693 107 331.413 106.32C332.133 105.62 332.493 104.64 332.493 103.38C332.493 102.12 332.153 101.17 331.473 100.53C330.793 99.89 329.823 99.57 328.563 99.57C327.283 99.57 326.293 99.91 325.593 100.59C324.893 101.25 324.543 102.22 324.543 103.5C324.543 104.74 324.873 105.69 325.533 106.35C326.213 107.01 327.173 107.34 328.413 107.34ZM349.167 112.47L348.897 112.14L351.507 112.71V114H344.427V112.71L347.037 112.14L346.767 112.47V99.81L347.007 100.08L344.427 99.54V98.25L349.167 98.07V112.47ZM347.787 94.83C347.327 94.83 346.947 94.68 346.647 94.38C346.347 94.08 346.197 93.67 346.197 93.15C346.197 92.61 346.347 92.2 346.647 91.92C346.967 91.62 347.357 91.47 347.817 91.47C348.297 91.47 348.687 91.61 348.987 91.89C349.287 92.17 349.437 92.59 349.437 93.15C349.437 93.69 349.277 94.11 348.957 94.41C348.637 94.69 348.247 94.83 347.787 94.83ZM356.393 102C356.393 102.64 356.603 103.14 357.023 103.5C357.443 103.86 357.983 104.16 358.643 104.4C359.303 104.62 360.003 104.84 360.743 105.06C361.483 105.28 362.183 105.55 362.843 105.87C363.503 106.19 364.043 106.63 364.463 107.19C364.883 107.75 365.093 108.49 365.093 109.41C365.093 110.47 364.803 111.36 364.223 112.08C363.643 112.8 362.853 113.35 361.853 113.73C360.873 114.09 359.773 114.27 358.553 114.27C357.813 114.27 357.053 114.21 356.273 114.09C355.493 113.97 354.693 113.8 353.873 113.58L354.083 109.56H355.613L355.913 112.5L355.643 112.17C356.103 112.29 356.603 112.39 357.143 112.47C357.683 112.55 358.183 112.59 358.643 112.59C359.363 112.59 360.023 112.49 360.623 112.29C361.243 112.07 361.743 111.76 362.123 111.36C362.503 110.94 362.693 110.42 362.693 109.8C362.693 109.14 362.483 108.62 362.063 108.24C361.663 107.86 361.133 107.55 360.473 107.31C359.813 107.07 359.113 106.85 358.373 106.65C357.653 106.43 356.963 106.16 356.303 105.84C355.643 105.5 355.103 105.06 354.683 104.52C354.263 103.98 354.053 103.24 354.053 102.3C354.053 101.28 354.313 100.45 354.833 99.81C355.373 99.15 356.073 98.67 356.933 98.37C357.813 98.05 358.753 97.89 359.753 97.89C360.433 97.89 361.183 97.96 362.003 98.1C362.823 98.24 363.663 98.45 364.523 98.73L364.373 102.12H362.843L362.393 99.63L362.753 100.05C361.713 99.75 360.733 99.6 359.813 99.6C358.833 99.6 358.013 99.81 357.353 100.23C356.713 100.63 356.393 101.22 356.393 102ZM380.055 114.27C379.335 114.27 378.565 114.22 377.745 114.12C376.945 114.02 376.095 113.87 375.195 113.67V92.25L375.675 92.94L372.855 92.34V91.05L377.595 90.84V100.71L377.265 100.35C378.105 99.55 378.975 98.94 379.875 98.52C380.775 98.1 381.675 97.89 382.575 97.89C383.695 97.89 384.695 98.2 385.575 98.82C386.475 99.44 387.185 100.34 387.705 101.52C388.225 102.7 388.485 104.15 388.485 105.87C388.485 107.17 388.315 108.34 387.975 109.38C387.655 110.42 387.155 111.3 386.475 112.02C385.795 112.74 384.925 113.3 383.865 113.7C382.805 114.08 381.535 114.27 380.055 114.27ZM380.505 112.5C382.285 112.5 383.645 111.95 384.585 110.85C385.525 109.75 385.995 108.15 385.995 106.05C385.995 104.73 385.805 103.6 385.425 102.66C385.065 101.72 384.565 101 383.925 100.5C383.285 99.98 382.555 99.72 381.735 99.72C381.035 99.72 380.305 99.91 379.545 100.29C378.805 100.65 378.055 101.21 377.295 101.97L377.595 101.1V112.68L377.265 112.02C378.485 112.34 379.565 112.5 380.505 112.5ZM398.208 114.27C396.868 114.27 395.678 113.97 394.638 113.37C393.618 112.75 392.818 111.85 392.238 110.67C391.658 109.49 391.368 108.05 391.368 106.35C391.368 104.61 391.668 103.11 392.268 101.85C392.868 100.59 393.718 99.62 394.818 98.94C395.918 98.24 397.208 97.89 398.688 97.89C400.088 97.89 401.238 98.19 402.138 98.79C403.058 99.37 403.738 100.18 404.178 101.22C404.638 102.26 404.868 103.45 404.868 104.79C404.868 105.01 404.858 105.23 404.838 105.45C404.818 105.67 404.788 105.94 404.748 106.26H393.198V104.55H402.648L402.378 104.73C402.398 103.83 402.288 103 402.048 102.24C401.808 101.48 401.398 100.87 400.818 100.41C400.238 99.95 399.468 99.72 398.508 99.72C397.488 99.72 396.628 99.99 395.928 100.53C395.228 101.07 394.708 101.81 394.368 102.75C394.028 103.69 393.858 104.78 393.858 106.02C393.858 107.34 394.048 108.48 394.428 109.44C394.808 110.38 395.358 111.11 396.078 111.63C396.818 112.15 397.718 112.41 398.778 112.41C399.518 112.41 400.328 112.27 401.208 111.99C402.088 111.69 402.998 111.24 403.938 110.64L404.808 111.99C403.688 112.75 402.568 113.32 401.448 113.7C400.328 114.08 399.248 114.27 398.208 114.27ZM412.784 114.27C411.744 114.27 410.924 113.95 410.324 113.31C409.724 112.65 409.424 111.66 409.424 110.34V99.45L409.814 99.84H406.724V98.52L409.844 98.07L409.424 98.55V94.59L411.824 94.2V98.55L411.494 98.16H416.204L416.114 99.84H411.494L411.824 99.45V110.01C411.824 110.85 411.984 111.46 412.304 111.84C412.644 112.22 413.114 112.41 413.714 112.41C414.074 112.41 414.464 112.35 414.884 112.23C415.304 112.11 415.754 111.94 416.234 111.72L416.744 113.1C415.324 113.88 414.004 114.27 412.784 114.27ZM423.653 114.27C422.613 114.27 421.793 113.95 421.193 113.31C420.593 112.65 420.293 111.66 420.293 110.34V99.45L420.683 99.84H417.593V98.52L420.713 98.07L420.293 98.55V94.59L422.693 94.2V98.55L422.363 98.16H427.073L426.983 99.84H422.363L422.693 99.45V110.01C422.693 110.85 422.853 111.46 423.173 111.84C423.513 112.22 423.983 112.41 424.583 112.41C424.943 112.41 425.333 112.35 425.753 112.23C426.173 112.11 426.623 111.94 427.103 111.72L427.613 113.1C426.193 113.88 424.873 114.27 423.653 114.27ZM435.971 114.27C434.631 114.27 433.441 113.97 432.401 113.37C431.381 112.75 430.581 111.85 430.001 110.67C429.421 109.49 429.131 108.05 429.131 106.35C429.131 104.61 429.431 103.11 430.031 101.85C430.631 100.59 431.481 99.62 432.581 98.94C433.681 98.24 434.971 97.89 436.451 97.89C437.851 97.89 439.001 98.19 439.901 98.79C440.821 99.37 441.501 100.18 441.941 101.22C442.401 102.26 442.631 103.45 442.631 104.79C442.631 105.01 442.621 105.23 442.601 105.45C442.581 105.67 442.551 105.94 442.511 106.26H430.961V104.55H440.411L440.141 104.73C440.161 103.83 440.051 103 439.811 102.24C439.571 101.48 439.161 100.87 438.581 100.41C438.001 99.95 437.231 99.72 436.271 99.72C435.251 99.72 434.391 99.99 433.691 100.53C432.991 101.07 432.471 101.81 432.131 102.75C431.791 103.69 431.621 104.78 431.621 106.02C431.621 107.34 431.811 108.48 432.191 109.44C432.571 110.38 433.121 111.11 433.841 111.63C434.581 112.15 435.481 112.41 436.541 112.41C437.281 112.41 438.091 112.27 438.971 111.99C439.851 111.69 440.761 111.24 441.701 110.64L442.571 111.99C441.451 112.75 440.331 113.32 439.211 113.7C438.091 114.08 437.011 114.27 435.971 114.27ZM445.238 114V112.71L447.878 112.14L447.578 112.59V99.66L447.908 100.11L445.238 99.54V98.25L449.438 98.04L449.768 100.98L449.438 100.86C450.338 99.92 451.218 99.19 452.078 98.67C452.938 98.15 453.878 97.89 454.898 97.89C455.538 97.89 456.208 97.99 456.908 98.19L456.728 102.57H455.228L454.868 99.42L455.138 99.96C454.998 99.92 454.848 99.89 454.688 99.87C454.528 99.85 454.368 99.84 454.208 99.84C453.408 99.84 452.628 100.08 451.868 100.56C451.128 101.04 450.418 101.66 449.738 102.42L449.978 101.7V112.59L449.618 112.14L452.888 112.71V114H445.238ZM469.825 114.27C468.785 114.27 467.965 113.95 467.365 113.31C466.765 112.65 466.465 111.66 466.465 110.34V99.45L466.855 99.84H463.765V98.52L466.885 98.07L466.465 98.55V94.59L468.865 94.2V98.55L468.535 98.16H473.245L473.155 99.84H468.535L468.865 99.45V110.01C468.865 110.85 469.025 111.46 469.345 111.84C469.685 112.22 470.155 112.41 470.755 112.41C471.115 112.41 471.505 112.35 471.925 112.23C472.345 112.11 472.795 111.94 473.275 111.72L473.785 113.1C472.365 113.88 471.045 114.27 469.825 114.27ZM474.671 114V112.71L477.401 112.11L477.041 112.56V92.46L477.401 92.94L474.671 92.34V91.05L479.441 90.84V100.98L478.901 100.86C479.881 99.84 480.911 99.09 481.991 98.61C483.091 98.13 484.131 97.89 485.111 97.89C485.991 97.89 486.781 98.07 487.481 98.43C488.181 98.79 488.721 99.34 489.101 100.08C489.501 100.8 489.701 101.72 489.701 102.84V112.56L489.401 112.14L492.041 112.71V114H485.051V112.71L487.631 112.14L487.301 112.59V103.38C487.321 102.14 487.041 101.23 486.461 100.65C485.881 100.07 485.121 99.78 484.181 99.78C483.461 99.78 482.661 99.98 481.781 100.38C480.901 100.78 480.051 101.41 479.231 102.27L479.441 101.76V112.59L479.141 112.17L481.691 112.71V114H474.671ZM506.025 112.65L505.635 112.11L508.395 112.65V113.97L504.195 114.15L503.835 111.27L504.045 111.36C503.165 112.32 502.215 113.05 501.195 113.55C500.175 114.03 499.185 114.27 498.225 114.27C497.065 114.27 496.085 113.9 495.285 113.16C494.485 112.42 494.085 111.3 494.085 109.8C494.085 108.62 494.335 107.72 494.835 107.1C495.335 106.46 496.025 106.01 496.905 105.75C497.785 105.49 498.805 105.36 499.965 105.36H503.895L503.625 105.66V102.78C503.625 101.68 503.335 100.9 502.755 100.44C502.175 99.96 501.375 99.72 500.355 99.72C499.815 99.72 499.235 99.78 498.615 99.9C498.015 100 497.375 100.17 496.695 100.41L497.055 100.02L496.755 102.75H495.165L494.925 99.03C496.065 98.65 497.135 98.37 498.135 98.19C499.135 97.99 500.055 97.89 500.895 97.89C502.495 97.89 503.745 98.25 504.645 98.97C505.565 99.67 506.025 100.8 506.025 102.36V112.65ZM496.515 109.59C496.515 110.57 496.745 111.29 497.205 111.75C497.685 112.21 498.285 112.44 499.005 112.44C499.705 112.44 500.475 112.23 501.315 111.81C502.175 111.37 503.005 110.78 503.805 110.04L503.625 110.67V106.65L503.895 106.92H500.325C498.905 106.92 497.915 107.14 497.355 107.58C496.795 108 496.515 108.67 496.515 109.59ZM510.101 114V112.71L512.801 112.11L512.441 112.56V99.66L512.801 100.11L510.101 99.54V98.25L514.301 98.04L514.631 100.98L514.301 100.86C515.301 99.84 516.341 99.09 517.421 98.61C518.521 98.13 519.561 97.89 520.541 97.89C521.861 97.89 522.951 98.3 523.811 99.12C524.691 99.92 525.121 101.17 525.101 102.87V112.56L524.801 112.14L527.441 112.71V114H520.451V112.71L523.061 112.14L522.701 112.59V103.38C522.701 102.14 522.421 101.23 521.861 100.65C521.301 100.07 520.551 99.78 519.611 99.78C518.871 99.78 518.061 99.98 517.181 100.38C516.321 100.78 515.471 101.4 514.631 102.24L514.841 101.76V112.59L514.541 112.17L517.091 112.71V114H510.101ZM547.421 112.65L547.031 112.11L549.791 112.65V113.97L545.591 114.15L545.231 111.27L545.441 111.36C544.561 112.32 543.611 113.05 542.591 113.55C541.571 114.03 540.581 114.27 539.621 114.27C538.461 114.27 537.481 113.9 536.681 113.16C535.881 112.42 535.481 111.3 535.481 109.8C535.481 108.62 535.731 107.72 536.231 107.1C536.731 106.46 537.421 106.01 538.301 105.75C539.181 105.49 540.201 105.36 541.361 105.36H545.291L545.021 105.66V102.78C545.021 101.68 544.731 100.9 544.151 100.44C543.571 99.96 542.771 99.72 541.751 99.72C541.211 99.72 540.631 99.78 540.011 99.9C539.411 100 538.771 100.17 538.091 100.41L538.451 100.02L538.151 102.75H536.561L536.321 99.03C537.461 98.65 538.531 98.37 539.531 98.19C540.531 97.99 541.451 97.89 542.291 97.89C543.891 97.89 545.141 98.25 546.041 98.97C546.961 99.67 547.421 100.8 547.421 102.36V112.65ZM537.911 109.59C537.911 110.57 538.141 111.29 538.601 111.75C539.081 112.21 539.681 112.44 540.401 112.44C541.101 112.44 541.871 112.23 542.711 111.81C543.571 111.37 544.401 110.78 545.201 110.04L545.021 110.67V106.65L545.291 106.92H541.721C540.301 106.92 539.311 107.14 538.751 107.58C538.191 108 537.911 108.67 537.911 109.59ZM564.283 121.17C561.943 121.17 560.193 120.83 559.033 120.15C557.873 119.47 557.293 118.49 557.293 117.21C557.293 116.31 557.593 115.51 558.193 114.81C558.793 114.11 559.673 113.5 560.833 112.98L560.863 113.46C560.223 113.42 559.733 113.29 559.393 113.07C559.053 112.83 558.883 112.5 558.883 112.08C558.883 111.92 558.903 111.76 558.943 111.6C558.983 111.44 559.053 111.22 559.153 110.94C559.273 110.64 559.443 110.25 559.663 109.77C559.903 109.27 560.203 108.62 560.563 107.82L560.623 108.24C559.763 107.78 559.103 107.16 558.643 106.38C558.183 105.58 557.953 104.64 557.953 103.56C557.953 101.82 558.523 100.44 559.663 99.42C560.823 98.4 562.413 97.89 564.433 97.89C565.793 97.89 566.963 98.13 567.943 98.61L567.283 98.46L571.993 98.25L572.023 99.69L569.233 100.23L569.443 99.87C569.863 100.27 570.183 100.76 570.403 101.34C570.623 101.92 570.733 102.58 570.733 103.32C570.733 105.08 570.143 106.47 568.963 107.49C567.783 108.51 566.213 109.02 564.253 109.02C563.133 109.02 562.103 108.83 561.163 108.45L561.703 108.18L560.923 112.11L560.413 111.81H566.293C568.213 111.81 569.673 112.19 570.673 112.95C571.673 113.69 572.173 114.76 572.173 116.16C572.173 117.78 571.503 119.02 570.163 119.88C568.843 120.74 566.883 121.17 564.283 121.17ZM564.493 119.34C566.313 119.34 567.663 119.09 568.543 118.59C569.423 118.09 569.863 117.34 569.863 116.34C569.863 115.46 569.533 114.79 568.873 114.33C568.213 113.89 567.223 113.67 565.903 113.67H561.133L561.823 113.52C560.223 114.52 559.423 115.6 559.423 116.76C559.423 117.62 559.833 118.26 560.653 118.68C561.493 119.12 562.773 119.34 564.493 119.34ZM564.253 107.34C565.533 107.34 566.533 107 567.253 106.32C567.973 105.62 568.333 104.64 568.333 103.38C568.333 102.12 567.993 101.17 567.313 100.53C566.633 99.89 565.663 99.57 564.403 99.57C563.123 99.57 562.133 99.91 561.433 100.59C560.733 101.25 560.383 102.22 560.383 103.5C560.383 104.74 560.713 105.69 561.373 106.35C562.053 107.01 563.013 107.34 564.253 107.34ZM581.56 97.89C583.76 97.89 585.48 98.58 586.72 99.96C587.98 101.34 588.61 103.29 588.61 105.81C588.61 107.51 588.3 109 587.68 110.28C587.08 111.54 586.22 112.52 585.1 113.22C583.98 113.92 582.63 114.27 581.05 114.27C578.89 114.27 577.2 113.6 575.98 112.26C574.76 110.9 574.15 108.95 574.15 106.41C574.15 104.65 574.44 103.14 575.02 101.88C575.62 100.6 576.47 99.62 577.57 98.94C578.69 98.24 580.02 97.89 581.56 97.89ZM581.44 99.66C579.9 99.66 578.72 100.24 577.9 101.4C577.08 102.56 576.67 104.19 576.67 106.29C576.67 108.35 577.06 109.9 577.84 110.94C578.62 111.98 579.74 112.5 581.2 112.5C582.26 112.5 583.15 112.24 583.87 111.72C584.61 111.18 585.16 110.42 585.52 109.44C585.9 108.46 586.09 107.29 586.09 105.93C586.09 103.89 585.68 102.34 584.86 101.28C584.06 100.2 582.92 99.66 581.44 99.66ZM598.816 97.89C601.016 97.89 602.736 98.58 603.976 99.96C605.236 101.34 605.866 103.29 605.866 105.81C605.866 107.51 605.556 109 604.936 110.28C604.336 111.54 603.476 112.52 602.356 113.22C601.236 113.92 599.886 114.27 598.306 114.27C596.146 114.27 594.456 113.6 593.236 112.26C592.016 110.9 591.406 108.95 591.406 106.41C591.406 104.65 591.696 103.14 592.276 101.88C592.876 100.6 593.726 99.62 594.826 98.94C595.946 98.24 597.276 97.89 598.816 97.89ZM598.696 99.66C597.156 99.66 595.976 100.24 595.156 101.4C594.336 102.56 593.926 104.19 593.926 106.29C593.926 108.35 594.316 109.9 595.096 110.94C595.876 111.98 596.996 112.5 598.456 112.5C599.516 112.5 600.406 112.24 601.126 111.72C601.866 111.18 602.416 110.42 602.776 109.44C603.156 108.46 603.346 107.29 603.346 105.93C603.346 103.89 602.936 102.34 602.116 101.28C601.316 100.2 600.176 99.66 598.696 99.66ZM614.602 114.27C613.502 114.27 612.502 113.97 611.602 113.37C610.702 112.75 609.992 111.85 609.472 110.67C608.952 109.47 608.692 108.02 608.692 106.32C608.692 103.54 609.402 101.44 610.822 100.02C612.242 98.6 614.192 97.89 616.672 97.89C617.192 97.89 617.732 97.93 618.292 98.01C618.872 98.09 619.462 98.21 620.062 98.37L619.582 98.64V92.61L619.852 92.94L617.092 92.34V91.05L621.982 90.84V112.53L621.622 112.11L624.322 112.65V113.97L620.122 114.15L619.762 111.57L620.062 111.69C619.162 112.55 618.252 113.2 617.332 113.64C616.432 114.06 615.522 114.27 614.602 114.27ZM615.442 112.44C616.142 112.44 616.862 112.26 617.602 111.9C618.362 111.52 619.122 110.96 619.882 110.22L619.582 111.03V99.66L619.912 100.26C618.692 99.86 617.582 99.66 616.582 99.66C614.822 99.66 613.482 100.23 612.562 101.37C611.642 102.51 611.182 104.09 611.182 106.11C611.182 107.43 611.362 108.57 611.722 109.53C612.102 110.47 612.612 111.19 613.252 111.69C613.912 112.19 614.642 112.44 615.442 112.44ZM646.611 100.89L646.281 100.95C647.261 99.93 648.301 99.17 649.401 98.67C650.501 98.15 651.531 97.89 652.491 97.89C653.711 97.89 654.731 98.3 655.551 99.12C656.391 99.92 656.811 101.16 656.811 102.84V112.56L656.511 112.14L659.151 112.71V114H652.191V112.71L654.741 112.14L654.411 112.59V103.38C654.411 102.14 654.141 101.23 653.601 100.65C653.081 100.07 652.401 99.78 651.561 99.78C650.841 99.78 650.041 99.99 649.161 100.41C648.301 100.83 647.451 101.47 646.611 102.33L646.821 101.76C646.841 101.94 646.851 102.11 646.851 102.27C646.871 102.43 646.881 102.59 646.881 102.75V112.56L646.581 112.14L649.071 112.71V114H642.291V112.71L644.841 112.14L644.481 112.59V103.38C644.481 102.14 644.211 101.23 643.671 100.65C643.151 100.07 642.471 99.78 641.631 99.78C640.911 99.78 640.121 99.98 639.261 100.38C638.401 100.78 637.551 101.4 636.711 102.24L636.921 101.79V112.59L636.621 112.17L639.111 112.71V114H632.181V112.71L634.881 112.11L634.521 112.56V99.66L634.881 100.11L632.181 99.54V98.25L636.381 98.04L636.711 100.98L636.381 100.86C637.361 99.84 638.391 99.09 639.471 98.61C640.571 98.13 641.611 97.89 642.591 97.89C643.511 97.89 644.331 98.14 645.051 98.64C645.771 99.12 646.291 99.87 646.611 100.89ZM667.944 114.27C666.604 114.27 665.414 113.97 664.374 113.37C663.354 112.75 662.554 111.85 661.974 110.67C661.394 109.49 661.104 108.05 661.104 106.35C661.104 104.61 661.404 103.11 662.004 101.85C662.604 100.59 663.454 99.62 664.554 98.94C665.654 98.24 666.944 97.89 668.424 97.89C669.824 97.89 670.974 98.19 671.874 98.79C672.794 99.37 673.474 100.18 673.914 101.22C674.374 102.26 674.604 103.45 674.604 104.79C674.604 105.01 674.594 105.23 674.574 105.45C674.554 105.67 674.524 105.94 674.484 106.26H662.934V104.55H672.384L672.114 104.73C672.134 103.83 672.024 103 671.784 102.24C671.544 101.48 671.134 100.87 670.554 100.41C669.974 99.95 669.204 99.72 668.244 99.72C667.224 99.72 666.364 99.99 665.664 100.53C664.964 101.07 664.444 101.81 664.104 102.75C663.764 103.69 663.594 104.78 663.594 106.02C663.594 107.34 663.784 108.48 664.164 109.44C664.544 110.38 665.094 111.11 665.814 111.63C666.554 112.15 667.454 112.41 668.514 112.41C669.254 112.41 670.064 112.27 670.944 111.99C671.824 111.69 672.734 111.24 673.674 110.64L674.544 111.99C673.424 112.75 672.304 113.32 671.184 113.7C670.064 114.08 668.984 114.27 667.944 114.27ZM691.64 100.89L691.31 100.95C692.29 99.93 693.33 99.17 694.43 98.67C695.53 98.15 696.56 97.89 697.52 97.89C698.74 97.89 699.76 98.3 700.58 99.12C701.42 99.92 701.84 101.16 701.84 102.84V112.56L701.54 112.14L704.18 112.71V114H697.22V112.71L699.77 112.14L699.44 112.59V103.38C699.44 102.14 699.17 101.23 698.63 100.65C698.11 100.07 697.43 99.78 696.59 99.78C695.87 99.78 695.07 99.99 694.19 100.41C693.33 100.83 692.48 101.47 691.64 102.33L691.85 101.76C691.87 101.94 691.88 102.11 691.88 102.27C691.9 102.43 691.91 102.59 691.91 102.75V112.56L691.61 112.14L694.1 112.71V114H687.32V112.71L689.87 112.14L689.51 112.59V103.38C689.51 102.14 689.24 101.23 688.7 100.65C688.18 100.07 687.5 99.78 686.66 99.78C685.94 99.78 685.15 99.98 684.29 100.38C683.43 100.78 682.58 101.4 681.74 102.24L681.95 101.79V112.59L681.65 112.17L684.14 112.71V114H677.21V112.71L679.91 112.11L679.55 112.56V99.66L679.91 100.11L677.21 99.54V98.25L681.41 98.04L681.74 100.98L681.41 100.86C682.39 99.84 683.42 99.09 684.5 98.61C685.6 98.13 686.64 97.89 687.62 97.89C688.54 97.89 689.36 98.14 690.08 98.64C690.8 99.12 691.32 99.87 691.64 100.89ZM713.513 97.89C715.713 97.89 717.433 98.58 718.673 99.96C719.933 101.34 720.563 103.29 720.563 105.81C720.563 107.51 720.253 109 719.633 110.28C719.033 111.54 718.173 112.52 717.053 113.22C715.933 113.92 714.583 114.27 713.003 114.27C710.843 114.27 709.153 113.6 707.933 112.26C706.713 110.9 706.103 108.95 706.103 106.41C706.103 104.65 706.393 103.14 706.973 101.88C707.573 100.6 708.423 99.62 709.523 98.94C710.643 98.24 711.973 97.89 713.513 97.89ZM713.393 99.66C711.853 99.66 710.673 100.24 709.853 101.4C709.033 102.56 708.623 104.19 708.623 106.29C708.623 108.35 709.013 109.9 709.793 110.94C710.573 111.98 711.693 112.5 713.153 112.5C714.213 112.5 715.103 112.24 715.823 111.72C716.563 111.18 717.113 110.42 717.473 109.44C717.853 108.46 718.043 107.29 718.043 105.93C718.043 103.89 717.633 102.34 716.813 101.28C716.013 100.2 714.873 99.66 713.393 99.66ZM723.089 114V112.71L725.729 112.14L725.429 112.59V99.66L725.759 100.11L723.089 99.54V98.25L727.289 98.04L727.619 100.98L727.289 100.86C728.189 99.92 729.069 99.19 729.929 98.67C730.789 98.15 731.729 97.89 732.749 97.89C733.389 97.89 734.059 97.99 734.759 98.19L734.579 102.57H733.079L732.719 99.42L732.989 99.96C732.849 99.92 732.699 99.89 732.539 99.87C732.379 99.85 732.219 99.84 732.059 99.84C731.259 99.84 730.479 100.08 729.719 100.56C728.979 101.04 728.269 101.66 727.589 102.42L727.829 101.7V112.59L727.469 112.14L730.739 112.71V114H723.089ZM736.052 121.02L736.262 119.25C736.502 119.29 736.722 119.32 736.922 119.34C737.142 119.36 737.342 119.37 737.522 119.37C738.502 119.37 739.292 119.14 739.892 118.68C740.512 118.24 741.032 117.57 741.452 116.67C741.872 115.77 742.302 114.65 742.742 113.31L742.652 114.21L737.042 99.6L737.372 99.87L735.422 99.54V98.25L741.992 98.04V99.36L739.292 99.81L739.472 99.54L743.942 112.29L743.402 112.17L747.692 99.6L747.872 99.87L745.232 99.54V98.25L751.592 98.04V99.36L749.492 99.84L749.912 99.57L744.632 114.06C744.272 115.06 743.892 115.99 743.492 116.85C743.112 117.71 742.672 118.46 742.172 119.1C741.672 119.76 741.062 120.27 740.342 120.63C739.622 120.99 738.752 121.17 737.732 121.17C737.272 121.17 736.712 121.12 736.052 121.02ZM751.869 112.59C751.869 112.11 752.029 111.73 752.349 111.45C752.669 111.17 753.039 111.03 753.459 111.03C753.939 111.03 754.319 111.17 754.599 111.45C754.879 111.73 755.019 112.11 755.019 112.59C755.019 113.07 754.859 113.45 754.539 113.73C754.239 114.01 753.879 114.15 753.459 114.15C752.979 114.15 752.589 114.01 752.289 113.73C752.009 113.45 751.869 113.07 751.869 112.59ZM758.197 112.59C758.197 112.11 758.357 111.73 758.677 111.45C758.997 111.17 759.367 111.03 759.787 111.03C760.267 111.03 760.647 111.17 760.927 111.45C761.207 111.73 761.347 112.11 761.347 112.59C761.347 113.07 761.187 113.45 760.867 113.73C760.567 114.01 760.207 114.15 759.787 114.15C759.307 114.15 758.917 114.01 758.617 113.73C758.337 113.45 758.197 113.07 758.197 112.59ZM764.526 112.59C764.526 112.11 764.686 111.73 765.006 111.45C765.326 111.17 765.696 111.03 766.116 111.03C766.596 111.03 766.976 111.17 767.256 111.45C767.536 111.73 767.676 112.11 767.676 112.59C767.676 113.07 767.516 113.45 767.196 113.73C766.896 114.01 766.536 114.15 766.116 114.15C765.636 114.15 765.246 114.01 764.946 113.73C764.666 113.45 764.526 113.07 764.526 112.59Z" fill="#F5F5F5"/>
<defs>
<linearGradient id="paint0_linear_3_24" x1="26.3492" y1="11.3073" x2="118.584" y2="142.407" gradientUnits="userSpaceOnUse">
<stop stop-color="#6200E3"/>
<stop offset="1" stop-color="#0BE3BE"/>
</linearGradient>
<linearGradient id="paint1_linear_3_24" x1="50.1668" y1="33.9541" x2="64.7183" y2="61.5783" gradientUnits="userSpaceOnUse">
<stop stop-color="#6200E3"/>
<stop offset="1" stop-color="#0BE3BE"/>
</linearGradient>
<linearGradient id="paint2_linear_3_24" x1="66.2353" y1="34.7338" x2="78.1898" y2="66.8402" gradientUnits="userSpaceOnUse">
<stop stop-color="#6200E3"/>
<stop offset="1" stop-color="#0BE3BE"/>
</linearGradient>
<linearGradient id="paint3_linear_3_24" x1="50.1712" y1="67.5793" x2="64.7249" y2="95.205" gradientUnits="userSpaceOnUse">
<stop stop-color="#6200E3"/>
<stop offset="1" stop-color="#0BE3BE"/>
</linearGradient>
<linearGradient id="paint4_linear_3_24" x1="66.2397" y1="68.3614" x2="78.192" y2="100.465" gradientUnits="userSpaceOnUse">
<stop stop-color="#6200E3"/>
<stop offset="1" stop-color="#0BE3BE"/>
</linearGradient>
<linearGradient id="paint5_linear_3_24" x1="50.1756" y1="101.206" x2="64.7271" y2="128.83" gradientUnits="userSpaceOnUse">
<stop stop-color="#6200E3"/>
<stop offset="1" stop-color="#0BE3BE"/>
</linearGradient>
<clipPath id="clip0_3_24">
<rect width="144.913" height="144.913" fill="white" transform="translate(0 0.0188904)"/>
</clipPath>
</defs>
</svg>
