<svg width="145" height="145" viewBox="0 0 145 145" fill="none" xmlns="http://www.w3.org/2000/svg">
<g clip-path="url(#clip0_2_2)">
<path d="M111.73 6.58681L89.1524 6.58976L88.234 2.4669C87.9186 1.03033 86.6419 0.00760386 85.1699 0.00779574L59.7382 0.0111109C58.2662 0.0113028 56.9947 1.03436 56.6748 2.47101L55.762 6.59411L33.1801 6.59705C24.9197 6.59813 18.2042 13.3178 18.2053 21.5783L18.2194 129.95C18.2205 138.211 24.9377 144.929 33.1982 144.928L111.748 144.917C120.008 144.916 126.729 138.197 126.728 129.936L126.714 21.5641C126.712 13.3037 119.99 6.58574 111.73 6.58681ZM116.937 129.937C116.938 132.798 114.61 135.127 111.746 135.127L33.1966 135.137C30.3378 135.138 28.0095 132.81 28.0091 129.949L27.995 21.577C27.9946 18.7158 30.3223 16.3877 33.1811 16.3873L53.5879 16.3847L53.0674 18.727C52.8569 19.6566 53.0867 20.6318 53.6797 21.3729C54.2769 22.1163 55.1808 22.5486 56.1316 22.5485L88.7861 22.5442C89.7375 22.5441 90.6409 22.1115 91.2334 21.368C91.8311 20.6246 92.0603 19.6518 91.8499 18.7219L91.3288 16.3798L111.731 16.3771C114.595 16.3767 116.923 18.7045 116.923 21.5654L116.937 129.937Z" fill="url(#paint0_linear_2_2)"/>
<path d="M52.5944 58.0138L65.9074 58.0121L62.743 55.8519C58.2774 52.8053 57.1296 46.7125 60.1787 42.2474C63.2234 37.787 69.3181 36.6318 73.7832 39.6833L74.3047 40.0394L74.3042 36.3037C74.3039 33.8823 72.3388 31.9181 69.9196 31.9184L52.591 31.9206C50.1725 31.9209 48.2079 33.886 48.2082 36.3071L48.2105 53.6285C48.2108 56.0502 50.1759 58.0141 52.5944 58.0138Z" fill="url(#paint1_linear_2_2)"/>
<path d="M93.3535 33.9636L78.0104 48.4929L71.021 43.7257C68.798 42.1986 65.7479 42.7774 64.2186 45.0077C62.6939 47.24 63.2681 50.2852 65.5055 51.8098L75.7508 58.8044C76.5875 59.378 77.5483 59.6574 78.5093 59.6573C79.7283 59.6571 80.9373 59.2033 81.8746 58.316L100.085 41.0712C102.05 39.2139 102.13 36.1138 100.275 34.1517C98.4108 32.1895 95.3174 32.1062 93.3535 33.9636Z" fill="url(#paint2_linear_2_2)"/>
<path d="M52.5988 91.6413L65.9168 91.6396L62.7474 89.4769C58.2818 86.4297 57.134 80.3375 60.183 75.8724C63.2278 71.4092 69.3225 70.2541 73.7876 73.308L74.309 73.6644L74.3086 69.9287C74.3082 67.5076 72.3432 65.5431 69.924 65.5434L52.5954 65.5456C50.1769 65.5459 48.2123 67.511 48.2126 69.9321L48.2149 87.256C48.2152 89.677 50.1803 91.6416 52.5988 91.6413Z" fill="url(#paint3_linear_2_2)"/>
<path d="M93.3579 67.5907L78.0148 82.1176L71.0254 77.3504C68.8024 75.8208 65.7522 76.3974 64.223 78.6324C62.6983 80.8653 63.2725 83.9099 65.5099 85.4348L75.7552 92.4294C76.5919 93.003 77.5527 93.2824 78.5137 93.2823C79.7327 93.2821 80.9417 92.8276 81.8789 91.941L100.09 74.6984C102.054 72.841 102.134 69.7434 100.28 67.7788C98.4151 65.8164 95.3218 65.7355 93.3579 67.5907Z" fill="url(#paint4_linear_2_2)"/>
<path d="M69.9284 99.1702L52.5998 99.1725C50.1812 99.1728 48.2167 101.138 48.217 103.559L48.2192 120.88C48.2195 123.301 50.1846 125.266 52.6032 125.266L69.9318 125.263C72.3509 125.263 74.3155 123.298 74.3152 120.877L74.3129 103.556C74.3126 101.134 72.3475 99.1699 69.9284 99.1702Z" fill="url(#paint5_linear_2_2)"/>
</g>
<defs>
<linearGradient id="paint0_linear_2_2" x1="26.3492" y1="11.3074" x2="118.584" y2="142.407" gradientUnits="userSpaceOnUse">
<stop stop-color="#6200E3"/>
<stop offset="1" stop-color="#0BE3BE"/>
</linearGradient>
<linearGradient id="paint1_linear_2_2" x1="50.1668" y1="33.9542" x2="64.7183" y2="61.5784" gradientUnits="userSpaceOnUse">
<stop stop-color="#6200E3"/>
<stop offset="1" stop-color="#0BE3BE"/>
</linearGradient>
<linearGradient id="paint2_linear_2_2" x1="66.2353" y1="34.7338" x2="78.1898" y2="66.8403" gradientUnits="userSpaceOnUse">
<stop stop-color="#6200E3"/>
<stop offset="1" stop-color="#0BE3BE"/>
</linearGradient>
<linearGradient id="paint3_linear_2_2" x1="50.1712" y1="67.5794" x2="64.7249" y2="95.205" gradientUnits="userSpaceOnUse">
<stop stop-color="#6200E3"/>
<stop offset="1" stop-color="#0BE3BE"/>
</linearGradient>
<linearGradient id="paint4_linear_2_2" x1="66.2397" y1="68.3615" x2="78.192" y2="100.465" gradientUnits="userSpaceOnUse">
<stop stop-color="#6200E3"/>
<stop offset="1" stop-color="#0BE3BE"/>
</linearGradient>
<linearGradient id="paint5_linear_2_2" x1="50.1756" y1="101.206" x2="64.7271" y2="128.83" gradientUnits="userSpaceOnUse">
<stop stop-color="#6200E3"/>
<stop offset="1" stop-color="#0BE3BE"/>
</linearGradient>
<clipPath id="clip0_2_2">
<rect width="144.913" height="144.913" fill="white" transform="translate(0 0.0188904)"/>
</clipPath>
</defs>
</svg>
